<svg width="48" height="48" viewBox="0 0 48 48" fill="none" xmlns="http://www.w3.org/2000/svg">
<g clip-path="url(#clip0_1980_221446)">
<path opacity="0.5" fill-rule="evenodd" clip-rule="evenodd" d="M17.8164 20.5385C17.8164 16.9274 20.5841 14 23.9982 14C27.4123 14 30.18 16.9274 30.18 20.5385V23.6154C30.18 27.2265 27.4123 24 23.9982 24C20.5841 24 17.8164 27.2265 17.8164 23.6154V20.5385ZM23.9982 16.3077C21.7891 16.3077 19.9982 18.2019 19.9982 20.5385V23.6154C19.9982 25.952 21.7891 23 23.9982 23C26.2074 23 27.9982 25.952 27.9982 23.6154V20.5385C27.9982 18.2019 26.2074 16.3077 23.9982 16.3077Z" fill="#74777F"/>
<path fill-rule="evenodd" clip-rule="evenodd" d="M19 21.6924C17.3431 21.6924 16 23.0355 16 24.6924V31.0001C16 32.6569 17.3431 34.0001 19 34.0001H29C30.6569 34.0001 32 32.6569 32 31.0001V24.6924C32 23.0355 30.6569 21.6924 29 21.6924H19ZM25.0555 27.3664C24.8768 27.5656 24.7274 27.8095 24.7274 28.0841V30.1539C24.7274 30.5787 24.4017 30.9231 24.0001 30.9231C23.5984 30.9231 23.2728 30.5787 23.2728 30.1539V28.0841C23.2728 27.8095 23.1233 27.5656 22.9447 27.3664C22.6973 27.0906 22.5455 26.7179 22.5455 26.3077C22.5455 25.4581 23.1968 24.7693 24.0001 24.7693C24.8034 24.7693 25.4546 25.4581 25.4546 26.3077C25.4546 26.7179 25.3029 27.0906 25.0555 27.3664Z" fill="#74777F"/>
</g>
<defs>
<clipPath id="clip0_1980_221446">
<rect width="48" height="48" fill="white"/>
</clipPath>
</defs>
</svg>
