<svg width="48" height="48" viewBox="0 0 48 48" fill="none" xmlns="http://www.w3.org/2000/svg">
<g clip-path="url(#clip0_1980_226809)">
<path d="M19.6982 21.3047C19.3586 20.4151 19.3091 19.42 19.5496 18.4987C19.822 17.4544 20.4693 16.5155 21.3502 15.8896C22.1001 15.3411 23.0128 15.0422 23.9396 15H24.2509C25.0397 15.0387 25.825 15.2567 26.5042 15.6681C27.3957 16.1991 28.1067 17.0289 28.4817 17.9924C28.8248 18.8609 28.8885 19.8349 28.6727 20.7421C28.4534 21.681 27.9263 22.5425 27.1976 23.1789C26.4158 23.8681 25.3935 24.2866 24.3499 24.3358C23.3984 24.3886 22.4362 24.1424 21.6296 23.6396C20.7523 23.1016 20.059 22.2647 19.6982 21.3047ZM32.1748 28.1018C31.9448 27.5392 31.5911 27.0363 31.1878 26.5827C30.2716 25.5525 28.9769 24.8597 27.6008 24.691C27.3745 24.6699 27.1551 24.7542 26.9783 24.8879C26.2142 25.4329 25.2874 25.7423 24.3499 25.7845C23.2816 25.8373 22.1921 25.5489 21.3077 24.9441C21.1627 24.8457 21.0176 24.7367 20.8443 24.7015C20.6674 24.6628 20.4906 24.705 20.3172 24.7367C19.5496 24.8703 18.8173 25.1657 18.1665 25.5876C17.2467 26.1889 16.5003 27.0539 16.0475 28.0525C15.9803 28.1862 15.9838 28.3479 16.0617 28.4745C16.3305 28.9492 16.6736 29.3782 17.0239 29.8002C17.4554 30.2749 17.9259 30.7109 18.4318 31.1082C19.355 31.8045 20.4057 32.3319 21.5235 32.6413C22.2876 32.8664 23.08 32.9648 23.8724 33H24.2898C25.0645 32.9648 25.8392 32.8699 26.5821 32.6554C28.2199 32.2123 29.7269 31.3051 30.8765 30.0674C31.3612 29.5751 31.775 29.0195 32.1323 28.4323C32.196 28.3339 32.2243 28.2108 32.1748 28.1018Z" fill="#74777F"/>
</g>
<defs>
<clipPath id="clip0_1980_226809">
<rect width="48" height="48" fill="white"/>
</clipPath>
</defs>
</svg>
