<svg width="300" height="120" viewBox="0 0 300 120" fill="none" xmlns="http://www.w3.org/2000/svg">
<g clip-path="url(#clip0_1917_385530)">
<path d="M230.791 30.1862C238.624 28.6786 244.862 34.4837 250.026 39.4916C255.467 44.8635 261.064 51.327 261.272 59.4021C261.064 71.3588 252.573 81.444 242.973 87.6996C237.445 91.4599 230.133 92.5342 223.947 89.779C214.884 85.7241 207.121 78.7234 202.061 70.1978C197.988 62.7812 201.801 53.9956 206.67 47.9479C211.279 42.1949 218.644 37.0656 226.355 38.7812C234.725 41.5537 241.743 47.8266 246.283 55.2779C249.61 60.8057 245.936 67.1306 242.141 71.3068C238.641 74.8245 233.876 78.914 228.556 77.2331C223.479 74.9458 219.077 71.2375 215.681 66.836C210.95 61.1523 217.396 52.8866 223.323 51.431C227.811 52.3667 231.64 55.6765 234.084 59.4714C233.962 60.0952 233.685 61.1003 232.992 62.14C232.489 62.8851 232.108 63.457 231.467 63.6822C230.999 63.8555 230.15 63.9248 227.326 61.9494C224.64 60.0606 223.895 58.9342 223.115 59.1942C222.3 59.4887 222.092 61.1176 222.11 62.0014C222.231 66.6454 229.041 69.7819 230.237 70.3191C235.019 69.7472 238.069 65.0858 239.871 61.0483C239.663 55.8844 234.915 52.4707 231.294 49.4035C228.279 47.4627 224.518 44.3609 220.793 46.2671C214.225 49.2476 209.2 55.7111 208.004 62.8331C209.009 70.0938 215.248 75.0844 220.723 79.2606C225.315 82.8303 231.848 85.4815 237.272 82.0331C245.78 77.1292 254.289 68.2743 252.972 57.7039C249.333 46.1284 238.364 39.0584 228.331 33.392C228.937 32.5949 230.167 30.9833 230.791 30.1862Z" fill="#E73E0C"/>
<path d="M250.771 88.9991C251.291 88.6006 252.59 89.5017 254.618 90.8879C255.813 91.7024 257.026 92.6728 260.284 95.8786C262.173 97.7327 263.906 99.4482 265.743 101.562C266.973 102.983 268.03 104.352 268.169 104.508C268.619 105.08 268.792 105.842 268.636 106.657C268.463 107.558 267.735 108.112 266.262 109.204C264.478 110.521 263.559 111.18 262.554 110.989C261.653 110.816 261.064 110.105 260.839 109.741C260.059 108.528 257.702 104.82 255.484 100.679C252.902 95.8612 249.662 89.8309 250.771 88.9991Z" fill="#E73E0C"/>
<path d="M229.771 94.527C230.429 94.4923 230.984 95.9652 231.867 98.2699C232.387 99.6216 232.838 101.112 233.722 105.6C234.224 108.199 234.692 110.591 235.004 113.38C235.212 115.252 235.316 116.967 235.333 117.175C235.368 117.903 235.091 118.631 234.501 119.22C233.86 119.861 232.924 119.913 231.105 119.983C228.887 120.069 227.761 120.087 227.033 119.359C226.392 118.7 226.305 117.782 226.322 117.349C226.374 115.91 226.53 111.509 227.05 106.848C227.639 101.389 228.384 94.5963 229.771 94.527Z" fill="#E73E0C"/>
<path d="M209.86 88.618C210.397 88.9992 209.946 90.4895 209.236 92.8461C208.82 94.2324 208.266 95.688 206.221 99.7776C205.025 102.152 203.933 104.318 202.478 106.709C201.507 108.303 200.537 109.741 200.416 109.915C200.017 110.504 199.324 110.92 198.51 111.024C197.609 111.128 196.846 110.608 195.356 109.551C193.554 108.251 192.635 107.593 192.514 106.57C192.41 105.652 192.913 104.872 193.172 104.543C194.091 103.434 196.898 100.055 200.156 96.6757C203.968 92.7422 208.733 87.8209 209.86 88.618Z" fill="#E73E0C"/>
<path d="M210.969 33.3401C210.449 33.7387 209.149 32.8376 207.122 31.4513C205.926 30.6369 204.713 29.6665 201.455 26.4607C199.567 24.6066 197.834 22.891 195.997 20.777C194.767 19.356 193.709 17.9871 193.571 17.8311C193.12 17.2593 192.947 16.4968 193.103 15.6824C193.276 14.7813 194.004 14.2268 195.477 13.1351C197.262 11.8181 198.18 11.1596 199.185 11.3502C200.086 11.5235 200.676 12.234 200.901 12.5979C201.681 13.8109 204.037 17.5192 206.255 21.6607C208.855 26.4607 212.078 32.5084 210.969 33.3401Z" fill="#E73E0C"/>
<path d="M230.968 25.4729C230.309 25.5076 229.755 24.0346 228.871 21.7299C228.351 20.3783 227.901 18.8881 227.017 14.4C226.514 11.8007 226.046 9.40936 225.734 6.61947C225.527 4.74799 225.423 3.03247 225.405 2.82453C225.371 2.09673 225.648 1.36893 226.237 0.77976C226.878 0.138605 227.814 0.0866195 229.633 0.0173054C231.851 -0.0693372 232.978 -0.0866656 233.706 0.641132C234.347 1.29962 234.433 2.21803 234.416 2.65124C234.364 4.08951 234.208 8.49095 233.688 13.1523C233.099 18.6108 232.354 25.4036 230.968 25.4729Z" fill="#E73E0C"/>
<path d="M251.725 31.9884C251.188 31.6072 251.638 30.1169 252.349 27.7602C252.765 26.374 253.319 24.9184 255.364 20.8288C256.559 18.4548 257.651 16.2888 259.107 13.8974C260.077 12.3032 261.048 10.8649 261.169 10.6917C261.567 10.1025 262.261 9.6866 263.075 9.58263C263.976 9.47866 264.739 9.99851 266.229 11.0556C268.031 12.3552 268.949 13.0137 269.071 14.0361C269.175 14.9545 268.672 15.7343 268.412 16.0635C267.494 17.1725 264.687 20.5516 261.429 23.9306C257.634 27.8642 252.868 32.7855 251.725 31.9884Z" fill="#E73E0C"/>
<path d="M50.6642 19.9104C53.0555 20.0144 55.4295 20.101 57.8208 20.205L67.7847 43.5465C67.7847 43.5465 81.1277 43.2692 87.7299 44.205C91.0396 44.4649 90.9876 48.2945 92.0967 50.6165C92.7032 49.6461 94.0201 47.8786 96.3248 46.6656C97.2952 46.1458 99.2187 45.1407 101.766 45.4526C103.655 45.6952 105.006 46.5443 105.7 47.0642C107.363 48.3118 108.108 49.8541 108.385 50.5472C111.955 44.2916 119.268 44.9674 125.298 46.475C126.84 55.0353 125.974 63.7516 126.303 72.3985C129.145 72.7104 132.507 70.8216 132.524 67.7025C133.096 59.2635 134.084 48.7624 142.072 43.9451C150.095 41.2245 156.957 47.2201 163.49 50.8591C162.97 53.597 162.346 56.9934 161.653 60.927C160.874 65.3285 160.007 70.4924 161.497 71.1682C161.497 71.1682 161.515 71.1682 161.549 71.1855C161.549 71.1855 162.693 71.6014 165.622 71.2895L184.908 51.0671L169.85 51.0324L169.988 44.2743C169.988 44.2743 185.428 43.8064 193.139 44.4129C194.508 45.8165 195.825 47.3068 197.056 48.849C191.874 56.3176 185.22 62.5559 179.588 69.6779C186.104 69.8512 192.602 69.5913 199.1 69.2967C200.123 71.8093 202.133 76.8519 202.133 76.8519C202.133 76.8519 173.749 76.4014 159.591 76.2454C158.084 75.431 156.628 74.5646 155.207 73.6461C150.286 81.0801 139.889 79.4339 133.824 74.3913C129.717 78.1169 121.52 80.0577 118.592 73.9754C118.159 71.3068 117.622 67.2173 117.448 62.192C117.206 54.5848 118.02 50.5472 117.084 50.2873C115.837 49.9581 112.683 56.6295 110.863 62.7118C109.148 68.4476 108.68 73.4209 108.576 76.8346C107.432 76.8866 105.578 76.8173 103.533 76.0201C102.303 75.5523 101.315 74.9458 100.605 74.4259C100.726 72.3292 100.882 69.2794 101.056 65.5884C101.679 52.5053 101.523 51.0498 100.882 50.8591C99.3746 50.3913 95.6837 56.8895 93.7082 62.9371C91.8021 68.7942 91.6115 73.9754 91.7674 77.4584C90.3465 77.4064 88.3884 77.1465 86.205 76.2974C84.9053 75.7949 83.831 75.2057 82.9819 74.6512L83.3977 51.0324L70.6959 51.1364L79.7761 76.8519L69.5696 76.488L61.6851 52.5053L42.901 51.6043L19.8194 102.03L6.07788 102.914L32.7118 52.0548L0.636719 53.1292L1.36452 43.9277C13.3212 43.7198 25.2605 43.4945 37.2172 43.2866C41.7053 35.4887 46.1761 27.7082 50.6642 19.9104ZM46.1587 44.0664C50.4389 44.1877 54.7364 44.1877 59.0165 44.101C57.6476 38.9718 55.8974 33.9465 53.6793 29.1118C50.6468 33.8079 48.2208 38.8678 46.1587 44.0664ZM147.305 50.8938C146.543 51.3443 144.897 52.5227 142.852 61.3082C140.617 70.8736 141.899 72.3465 142.367 72.797C143.51 73.8887 145.469 74.218 146.959 73.6808C148.484 73.1263 149.922 71.5494 151.897 62.5039C152.573 59.4541 153.752 51.7256 153.752 51.7256C153.752 51.7256 149.662 49.4902 147.305 50.8938Z" fill="#1752A3"/>
<path d="M263.943 43.9797L272.001 43.7891C272.001 43.7891 272.139 48.4678 272.174 50.8071C272.521 50.2006 275.622 44.8808 281.774 44.1703C284.806 43.8237 289.364 44.5169 291.547 47.6533C293.02 49.7674 292.552 51.7429 292.292 58.4317C292.119 63.1277 292.171 66.9053 292.223 69.2447C294.164 70.9775 299.362 71.9479 299.362 71.9479L299.154 78.0649C299.154 78.0649 285.777 77.6663 283.611 71.2201C282.051 64.358 284.287 57.3226 283.541 50.3739C272.954 55.6244 274.375 69.0714 271.862 78.81C269.038 78.0822 263.215 79.1739 263.562 74.6685C263.77 64.4447 263.943 43.9797 263.943 43.9797Z" fill="#1752A3"/>
</g>
<defs>
<clipPath id="clip0_1917_385530">
<rect width="298.726" height="120" fill="white" transform="translate(0.636719)"/>
</clipPath>
</defs>
</svg>
