<?xml version="1.0" encoding="UTF-8"?>
<svg id="_레이어_1" data-name="레이어 1" xmlns="http://www.w3.org/2000/svg" viewBox="0 0 136.78 55.57">
  <defs>
    <style>
      .cls-1 {
        fill: #1853a4;
      }

      .cls-1, .cls-2 {
        stroke-width: 0px;
      }

      .cls-2 {
        fill: #e83e0b;
      }
    </style>
  </defs>
  <path class="cls-1" d="m136.06,32.5c-.85.05-1.54,0-1.86-.08-.74-.21-1.13-.82-1.09-2.01.02-1.17.33-4.06.38-4.53.17-1.47.54-3.71-.6-4.67-1.1-.89-3.22-1.23-4.73-.9-.72.15-1.6.66-2.27,1.45-.56.65-1.25,1.73-1.71,2.87,0,0,.01-1.22.08-2.19.05-.62.12-1.88-.16-2.04-.73-.44-2.4-.48-3.04-.22-.65.27-.51.68-.49,3.13,0,2.57,0,4.06,0,4.42l-.03,2.85c-.04,1.09-.07,3.44-.04,4.16.01.34.23.58.62.74.53.22,1.69.39,2.69.34.47-.02.64-1.06.86-3.08.37-3.11.78-4.78,1.16-5.65.87-1.98,1.93-3.76,3.16-3.76,1.32,0,.85,1.72.62,3.48-.13.95-.25,2.6-.27,3.54-.02,1.55.36,2.73,1.05,3.46.69.74,1.62,1.22,3.16,1.54.94.18,2.06.21,3.02,0,.5-.11.03-2.89-.5-2.85Zm-45.87-.67c-3.08.14-5.43.18-8.25.17-.21,0-.27-.14-.14-.3,1.94-2.38,4.69-5.2,7.31-8.46.15-.19.35-.5.35-.79,0-.2-.06-.42-.17-.62-.23-.41-.59-.89-.95-1.23-.24-.24-.49-.36-.72-.36-2.03,0-3.87.02-5.7.02-1.52,0-3.37-.02-3.88-.02-.12,0-.26.09-.33.25-.3.6-.3,2.1-.03,2.67.07.15.19.24.31.24,1.79-.02,4.46-.05,6.37-.06.1,0,.14.05.04.16,0,0-7.56,7.85-8.05,8.38-.75.81-1.37,1.04-1.8,1.04-.71,0-1.1-.53-1.17-1.7-.03-.84.03-2.17.12-2.96.1-1.55.31-3.19.95-4.91-.15-.41-.66-.62-1.57-.62l-.4.12c-1.13-1.92-3.27-2.88-6.4-2.88-1.76,0-3.17,1.27-4.26,3.79-.87,2.02-1.31,4.04-1.31,6.06,0,.56.03,1.08.1,1.57-.13.24-.28.49-.47.73-.54.69-1.36,1.24-1.75,1.24-.56,0-.94-.35-1.06-1.05-.1-.69-.16-2.22-.12-3.71.02-.86.06-1.88.08-2.62.12-4.09-.07-4.88-3.47-5.12-1.23-.08-2.44.01-3.23.86-.46.48-1.06,1.45-1.79,2.91-.13-1.41-.13-2.74-.76-3.17-.49-.34-1.73-.62-2.79-.62-.64,0-1.34.36-1.78.75-.45.39-1.08,1.15-1.99,3.04.02-.79.02-1.35.03-1.93,0-.63-.13-1.08-.5-1.54-.6-.72-1.31-.97-2.36-.98-1.55-.02-4.36,0-7.76-.02-.15,0-.31-.1-.37-.25-1.38-3.63-2.79-7.1-4.06-10.11-.09-.19-.27-.36-.49-.44-.79-.27-2.1-.23-2.92-.03-.17.04-.37.19-.46.34-1.96,3.31-3.91,6.91-5.88,10.45-.07.1-.17.16-.29.16-5.4-.01-10.35-.04-15.18-.12-.54,0-.83.25-.97.73-.19.64-.33,2.26-.24,2.78.08.47.33.62.72.6,3.39-.25,8.64-.52,13.88-.69.12-.01.21.13.15.25-3.76,7-7.68,14.16-12.03,22.1-.25.47.04,1.05.58,1.11,1.36.15,3.45-.02,4.67-.34.39-.11.81-.44.95-.78,2.74-6.36,6.5-14.63,9.99-22.1.07-.15.22-.26.37-.26,2.44-.04,6.05-.1,8.37-.13.11,0,.19.06.23.17,1.33,4.02,2.22,6.8,3.37,10.53.13.42.55.83,1.15.94.96.17,2.04.17,2.87.03.54-.09.73-.46.49-1.06-1.46-3.78-2.76-7.39-3.97-10.57-.05-.13.05-.27.19-.27,2.22,0,3.77.03,5.48.06.29,0,.42.07.49.4.12.69.14,1.71-.01,3.73-.16,2.26-.28,4.31-.32,5.89-.05,1.77,1.49,2.08,3.15,2.1.79,0,.86-.27,1.04-2.25.18-2.1.46-3.95.9-5.56.61-1.84,1.85-4.37,2.81-4.37.88,0,.52,2.66.41,3.84-.09,1.28-.21,2.89-.27,3.91-.05.8-.08,1.44-.08,1.83,0,1.48.77,2.22,2.57,2.22.42,0,.88-.09,1.04-.25.24-.27.39-1.06.67-3.1.39-2.61.66-4.39.98-5.36.61-1.87,1.41-3.01,2.17-3.01.14,0,.27.08.39.25.18.26.1,1.54.07,2.61-.01.99-.02,1.87-.02,2.43,0,2.42.19,4.01.41,4.74.49,1.65,1.67,2.21,3.54,2.21.74,0,1.94-.33,2.87-1.24.36-.34.64-.67.87-.98.19.44.44.82.73,1.13.9.97,2.39,1.46,4.48,1.46,1.02,0,2.11-.11,2.84-.77.57-.55.96-1.37,1.67-2.47.47,1.61,1.55,2.45,3.46,2.45.94,0,1.78-.45,2.48-1.15.36.49.75.88,1.08,1.11.25.15.71.23.91.23,3.86-.09,7.75-.14,12.59-.11.21,0,.54-.15.42-.54-.2-.74-.61-1.86-.94-2.51-.12-.21-.47-.31-.66-.3ZM20.55,20.34c-.09,0-.14-.1-.11-.19,1.21-2.51,2.37-4.84,3.49-6.99.06-.12.16-.17.27-.17s.2.05.23.2c.9,2.44,1.67,4.63,2.42,6.8.05.15-.06.29-.2.29-2.1.02-4.23.03-6.1.04Zm49.39,4.75c-.36,2.39-.63,3.82-.8,4.31-.26.75-.59,2.13-1.85,3.86-.36.49-1.2.69-1.61.59-.72-.18-1.01-.9-1.01-2.7s.27-3.49.79-5.19c.74-2.31,1.76-3.47,3.1-3.47.39,0,.75.12,1.1.36.34.25.5.55.5.92,0-.08-.07.36-.22,1.31Z"/>
  <path class="cls-2" d="m105.2,11.53c.56,0,.9-.42.97-.98.36-2.77.7-5.87.99-8.89.09-.83-.8-1.65-1.96-1.65s-2.05.83-1.97,1.65c.3,3.24.65,6.43.94,8.89.08.65.5.98,1.04.98Zm1.48,16.3c.11-.25.07-.51-.04-.73-.22-.39-1.05-1.29-1.89-1.98-.92-.78-1.98-1.48-2.79-1.48-1.47,0-4.31,2.98-4.28,5.11.04,1.7,3.86,5.14,6.32,6.33.42.2.89.36,1.38.38.64.02,1.33-.21,1.5-.3,1.36-.68,4.16-2.42,5.71-5.97.48-1.11.41-2.43-.02-3.42-.53-1.15-2.25-3.2-3.36-4.24-1.72-1.6-3.54-2.8-5.31-3.49-.7-.28-1.36-.44-1.93-.44-.75,0-1.6.25-2.28.48-1.75.6-3.44,1.79-4.9,3.46-1.54,1.74-2.53,3.66-3,5.33-.17.64-.27,1.25-.29,1.8-.03.99.15,2.18.63,3.07,2.1,3.9,5.38,6.68,9.01,8.72,1.16.66,3.14,1.26,4.69,1.24,1.17-.01,2.67-.44,3.68-.91,1.38-.65,3.39-2.15,4.91-3.69,2.1-2.12,3.48-4.28,4.22-6.58.3-.97.53-2.19.51-3.54-.03-1.19-.42-2.56-.99-3.62-.86-1.62-2.27-3.46-3.98-5.12-1.54-1.51-3.49-3.12-5.47-4.13-.29-.15-1.02-.29-1.53-.29-.66,0-1.5.13-2,.42-.39.22-.59.49-.61.79-.01.24.09.48.26.56,2.46,1.15,5,2.85,6.79,4.65,1.34,1.33,2.59,2.82,3.35,4.29,1.32,2.57.67,4.48.19,5.86-.89,2.47-3.34,5.17-6.22,6.95-.82.51-2.02,1.06-3.21,1.06-1.12,0-2.11-.33-2.62-.58-2.93-1.43-6.89-4.65-7.98-7.55-.18-.49-.3-.97-.3-1.43,0-.39.07-.84.21-1.31.35-1.16,1.11-2.52,2.16-3.82,1.34-1.66,3.43-2.93,4.66-2.97,1.25-.03,3.24,1.24,4.89,2.62,1.11.93,2.21,2.26,2.69,3.29.26.55.24,1.43,0,1.86-.33.61-.9,1.45-1.58,2.19-.88.96-1.65,1.51-2.58,1.6-.52.05-1.65-.79-2.59-1.62-.94-.82-1.65-1.74-1.7-2.05-.03-.3.17-.62.38-.92.24-.32.57-.6.88-.6.54,0,1.69,1.17,2.28,1.68.31.28.52.43.85.38.41-.06,1.23-1.1,1.32-1.35Zm-2.52,17.2c-.3,2.46-.65,5.66-.94,8.88-.08.83.78,1.67,1.97,1.67s2.05-.83,1.96-1.67c-.29-3.02-.62-6.11-.99-8.88-.07-.56-.41-.98-.97-.98s-.96.33-1.04.98Zm-8.13-30c.46-.33.47-.86.21-1.36-1.34-2.46-2.88-5.16-4.42-7.77-.43-.72-1.63-.88-2.57-.19-.95.7-1.16,1.87-.61,2.5,2.13,2.44,4.29,4.83,5.98,6.63.46.48.99.5,1.41.19Zm18.46,27.31c1.2,2.17,2.8,4.96,4.46,7.75.42.72,1.61.89,2.57.19.95-.69,1.16-1.87.61-2.5-2-2.28-4.09-4.58-6.03-6.61-.38-.41-.9-.55-1.35-.22-.42.31-.58.82-.26,1.39Zm-18.88-1.39c-.44-.33-.96-.19-1.35.22-1.92,2.03-4.02,4.33-6.02,6.61-.55.63-.33,1.82.61,2.5.96.69,2.15.53,2.57-.19,1.67-2.78,3.26-5.58,4.46-7.75.33-.57.17-1.08-.26-1.39Zm20.52-26.49c1.7-1.81,3.86-4.2,5.99-6.64.55-.62.33-1.8-.61-2.49-.94-.69-2.14-.53-2.57.18-1.55,2.61-3.09,5.31-4.43,7.77-.28.5-.25,1.04.21,1.37.42.31.96.29,1.4-.19Z"/>
</svg>